<?xml version="1.0" encoding="UTF-8"?>
<svg version="1.1" xmlns="http://www.w3.org/2000/svg" width="641" height="203">
<path d="M0 0 C211.53 0 423.06 0 641 0 C641 66.99 641 133.98 641 203 C429.47 203 217.94 203 0 203 C0 136.01 0 69.02 0 0 Z " fill="#FDFDFD" transform="translate(0,0)"/>
<path d="M0 0 C5.28 0 10.56 0 16 0 C16 5.28 16 10.56 16 16 C16.99 16 17.98 16 19 16 C19 10.72 19 5.44 19 0 C28.9 0 38.8 0 49 0 C49 3.3 49 6.6 49 10 C50.32 10 51.64 10 53 10 C53 6.7 53 3.4 53 0 C61.58 0 70.16 0 79 0 C80.07917226 3.23751678 80.11425601 5.57751771 80.09765625 8.98046875 C80.09515869 10.02871826 80.09266113 11.07696777 80.09008789 12.15698242 C80.08098389 13.48705322 80.07187988 14.81712402 80.0625 16.1875 C80.041875 20.415625 80.02125 24.64375 80 29 C90.89 29 101.78 29 113 29 C115.64655889 47.52591221 116 64.05019653 116 83 C76.4 83 36.8 83 -4 83 C-3.71125 70.604375 -3.4225 58.20875 -3.125 45.4375 C-3.03879395 41.53349365 -2.95258789 37.6294873 -2.86376953 33.60717773 C-2.74584961 28.8145752 -2.74584961 28.8145752 -2.6882019 26.5660553 C-2.649935 25.00644162 -2.61524986 23.44673741 -2.58346558 21.88697815 C-2.53441295 19.51477231 -2.47375045 17.14310852 -2.41064453 14.77124023 C-2.39910402 14.08443145 -2.38756351 13.39762266 -2.37567329 12.69000149 C-2.23257677 7.94810279 -1.36459117 4.77606911 0 0 Z " fill="#DB544F" transform="translate(44,72)"/>
<path d="M0 0 C20.79 0 41.58 0 63 0 C65.64655889 18.52591221 66 35.05019653 66 54 C26.4 54 -13.2 54 -54 54 C-54 51.36 -54 48.72 -54 46 C-53.34 46 -52.68 46 -52 46 C-52 47.98 -52 49.96 -52 52 C-36.16 52 -20.32 52 -4 52 C-4 44.74 -4 37.48 -4 30 C-3.61161174 24.87034368 -3.18054815 19.84386661 -2.5625 14.75 C-2.42779297 13.53054687 -2.29308594 12.31109375 -2.15429688 11.0546875 C-1.15649802 2.31299603 -1.15649802 2.31299603 0 0 Z " fill="#EAAC55" transform="translate(94,101)"/>
<path d="M0 0 C9.63636364 0 9.63636364 0 13 2 C17.4756192 6.59658188 20.66034194 12.05516436 24.03515625 17.48828125 C25.75013097 20.12633975 25.75013097 20.12633975 28.24609375 20.85546875 C28.82488281 20.90316406 29.40367187 20.95085937 30 21 C30.59167969 20.05898437 31.18335938 19.11796875 31.79296875 18.1484375 C32.59092412 16.89048433 33.38911376 15.63267975 34.1875 14.375 C34.57486328 13.75753906 34.96222656 13.14007813 35.36132812 12.50390625 C36.15329783 11.26031746 36.96338634 10.0280953 37.79052734 8.80761719 C39.01525869 7.03241959 39.01525869 7.03241959 39.99462891 5.20019531 C41.05078125 3.5390625 41.05078125 3.5390625 44 1 C47.96 1 51.92 1 56 1 C56 18.16 56 35.32 56 53 C52.37 53 48.74 53 45 53 C44.93941406 51.32550781 44.87882812 49.65101563 44.81640625 47.92578125 C44.73198107 45.7213461 44.64733406 43.51691945 44.5625 41.3125 C44.52318359 40.20970703 44.48386719 39.10691406 44.44335938 37.97070312 C44.40146484 36.90400391 44.35957031 35.83730469 44.31640625 34.73828125 C44.26141968 33.26935425 44.26141968 33.26935425 44.20532227 31.77075195 C44.00780667 29.10534823 43.58426967 26.60530212 43 24 C42.54109375 24.68707031 42.0821875 25.37414062 41.609375 26.08203125 C40.99578125 26.98308594 40.3821875 27.88414063 39.75 28.8125 C39.14671875 29.70582031 38.5434375 30.59914063 37.921875 31.51953125 C35.08663378 35.17883648 33.24260729 36.81591003 28.625 37.5 C24.18331658 36.88735401 21.86332683 35.29597237 19 32 C14 25.11842105 14 25.11842105 14 22 C13.34 22 12.68 22 12 22 C12 32.23 12 42.46 12 53 C8.04 53 4.08 53 0 53 C0 35.51 0 18.02 0 0 Z " fill="#0A0A0A" transform="translate(445,83)"/>
<path d="M0 0 C3.63 0 7.26 0 11 0 C11 11.88 11 23.76 11 36 C7.37 36 3.74 36 0 36 C0 35.34 0 34.68 0 34 C-0.763125 34.495 -1.52625 34.99 -2.3125 35.5 C-7.33924962 37.54477951 -11.64626318 37.92646226 -17 37 C-21.75164785 34.77044144 -26.01947289 31.00794875 -28.36328125 26.24609375 C-30.09303374 20.14420615 -30.66141518 13.14193129 -27.63671875 7.421875 C-20.17734125 -1.50953043 -10.99693572 -2.74923393 0 0 Z " fill="#151515" transform="translate(536,100)"/>
<path d="M0 0 C4.32426074 1.5587555 4.32426074 1.5587555 14.125 1 C14.125 12.88 14.125 24.76 14.125 37 C6.205 37.495 6.205 37.495 -1.875 38 C-5.0925 38.2475 -5.0925 38.2475 -8.375 38.5 C-13.74397651 38.45617162 -16.4483555 36.79997855 -20.25390625 33.1171875 C-25.60221622 26.13216581 -25.74708226 19.51801277 -24.875 11 C-20.74129228 0.93532033 -10.02624656 -3.48739011 0 0 Z " fill="#101010" transform="translate(243.875,99)"/>
<path d="M0 0 C1.828125 1.484375 1.828125 1.484375 2.6640625 3.48828125 C2.92117095 6.61643404 1.76355725 8.09734189 -0.171875 10.484375 C-3.49159998 11.64627874 -4.80035954 11.60821349 -8.171875 10.484375 C-16.09258341 9.7582856 -16.09258341 9.7582856 -23.359375 12.359375 C-26.37807131 15.89853619 -26.33311278 18.13323394 -26.359375 22.734375 C-26.38064453 24.41273437 -26.38064453 24.41273437 -26.40234375 26.125 C-26.16469442 29.58904111 -25.48339923 32.27842687 -24.171875 35.484375 C-21.26389454 37.94497385 -17.98001885 37.77678437 -14.26953125 37.6796875 C-9.96662563 37.27904452 -6.26130821 36.57380821 -3.171875 33.484375 C3.10308222 33.71255526 3.10308222 33.71255526 5.765625 36.546875 C6.11625 37.18625 6.466875 37.825625 6.828125 38.484375 C5.34063762 42.26994681 3.27462634 43.90004693 -0.046875 46.171875 C-0.91054687 46.77386719 -1.77421875 47.37585938 -2.6640625 47.99609375 C-8.55620087 51.49283007 -15.51049734 51.30435701 -22.171875 50.484375 C-30.31938648 47.04695775 -36.11251797 40.18626524 -39.4375 32.10546875 C-41.34807764 25.28633258 -41.4258981 18.05858475 -38.171875 11.671875 C-28.90766108 -2.57874301 -15.77999815 -8.24632161 0 0 Z " fill="#0D0D0D" transform="translate(207.171875,86.515625)"/>
<path d="M0 0 C6.38899068 2.84413134 11.92377416 7.66181394 15 14 C16.29541174 19.64357675 14.91046866 24.80611402 12.40625 29.921875 C9.19837845 34.66239629 4.16279964 37.70312321 -1 40 C-8.77475419 41.06712312 -13.86748287 37.15360552 -20 32.9375 C-23.7816786 29.27399886 -23.21653878 24.68569161 -23.3125 19.625 C-23.34988281 18.33851562 -23.38726562 17.05203125 -23.42578125 15.7265625 C-22.83232536 10.53246236 -20.73973772 7.64496601 -16.9921875 4.1015625 C-11.41696318 0.21330642 -6.78281354 -1.57839057 0 0 Z " fill="#121212" transform="translate(387,98)"/>
<path d="M0 0 C4.44910552 2.81874897 7.87260553 6.77570518 10.76953125 11.12109375 C11.59074366 17.56665628 11.43564897 23.73810623 8.11328125 29.43359375 C4.58699346 33.86195516 -0.01008748 36.71009194 -5.6484375 37.4296875 C-12.03855342 37.7271118 -15.70341548 37.00935315 -20.57421875 32.77734375 C-25.53977577 27.81178673 -27.37512627 24.33147644 -27.54296875 17.30859375 C-27.48576081 12.03275063 -26.92330493 9.10546963 -23.23046875 5.12109375 C-16.4487307 -1.51200347 -9.08749562 -4.28732863 0 0 Z " fill="#0D0D0D" transform="translate(348.23046875,99.87890625)"/>
<path d="M0 0 C4.00125 -0.0825 8.0025 -0.165 12.125 -0.25 C13.37555176 -0.28641602 14.62610352 -0.32283203 15.91455078 -0.36035156 C22.25038635 -0.42363847 26.28393639 -0.42227604 31 4 C34.22322844 7.42446908 34.35618001 9.88013235 34.29296875 14.515625 C34.2784668 16.39121094 34.2784668 16.39121094 34.26367188 18.3046875 C34.23853516 19.60664062 34.21339844 20.90859375 34.1875 22.25 C34.16719727 24.22613281 34.16719727 24.22613281 34.14648438 26.2421875 C34.11112551 29.49520321 34.06177033 32.747396 34 36 C30.37 36 26.74 36 23 36 C21.80809637 27.65667456 21.90716451 19.40676978 22 11 C17.9899066 10.82135369 17.9899066 10.82135369 14 11 C11.43863779 13.56136221 11.70333143 14.66561331 11.5859375 18.2265625 C11.52792969 19.7734375 11.52792969 19.7734375 11.46875 21.3515625 C11.4378125 22.43179688 11.406875 23.51203125 11.375 24.625 C11.31699219 26.25695312 11.31699219 26.25695312 11.2578125 27.921875 C11.16334154 30.61429745 11.08057419 33.30712584 11 36 C7.37 36 3.74 36 0 36 C0 24.12 0 12.24 0 0 Z " fill="#111111" transform="translate(406,100)"/>
<path d="M0 0 C3.3 0 6.6 0 10 0 C10 2.97 10 5.94 10 9 C13.63 9 17.26 9 21 9 C21.09765625 15.15234375 21.09765625 15.15234375 21 17 C20 18 20 18 17.93359375 18.09765625 C14.46679688 18.04882812 14.46679688 18.04882812 11 18 C11.66 23.61 12.32 29.22 13 35 C15.31 35.66 17.62 36.32 20 37 C20 39.64 20 42.28 20 45 C17.19135786 46.40432107 14.7561645 46.28352778 11.625 46.375 C10.48289062 46.42398438 9.34078125 46.47296875 8.1640625 46.5234375 C5 46 5 46 2.6484375 43.6015625 C0.40985968 40.0686411 -0.12262808 38.3562609 -0.09765625 34.2109375 C-0.09282227 32.79941406 -0.09282227 32.79941406 -0.08789062 31.359375 C-0.07951172 30.37453125 -0.07113281 29.3896875 -0.0625 28.375 C-0.05798828 27.38242188 -0.05347656 26.38984375 -0.04882812 25.3671875 C-0.03702145 22.9113984 -0.020554 20.45572896 0 18 C-1.65 17.67 -3.3 17.34 -5 17 C-5 14.69 -5 12.38 -5 10 C-3.35 9.67 -1.7 9.34 0 9 C0 6.03 0 3.06 0 0 Z " fill="#121212" transform="translate(586,91)"/>
<path d="M0 0 C3.3 0 6.6 0 10 0 C10 2.97 10 5.94 10 9 C13.3 9 16.6 9 20 9 C20 11.64 20 14.28 20 17 C16.7 17 13.4 17 10 17 C10.1409349 19.43787385 10.28754542 21.87517853 10.4375 24.3125 C10.47681641 25.00279297 10.51613281 25.69308594 10.55664062 26.40429688 C10.74927415 29.47161535 11.02322717 32.06968152 12 35 C13.87387216 35.80212628 13.87387216 35.80212628 16.0625 36.1875 C17.16271484 36.42533203 17.16271484 36.42533203 18.28515625 36.66796875 C18.85105469 36.77753906 19.41695313 36.88710937 20 37 C20 39.64 20 42.28 20 45 C17.20627174 46.39686413 14.80320908 46.28325772 11.6875 46.375 C10.55699219 46.42398438 9.42648437 46.47296875 8.26171875 46.5234375 C5 46 5 46 2.1015625 44.24609375 C-1.13650862 39.2445378 -0.53347216 34.50416725 -0.3125 28.6875 C-0.27866211 27.00430664 -0.27866211 27.00430664 -0.24414062 25.28710938 C-0.18533776 22.52337464 -0.10320401 19.76237446 0 17 C-1.65 17 -3.3 17 -5 17 C-5 14.69 -5 12.38 -5 10 C-3.35 9.67 -1.7 9.34 0 9 C0 6.03 0 3.06 0 0 Z " fill="#0A0A0A" transform="translate(298,91)"/>
<path d="M0 0 C0 3.63 0 7.26 0 11 C-2.44140625 11.13020833 -4.8828125 11.26041667 -7.32421875 11.390625 C-11.04677686 12.23839006 -12.5234187 13.03507872 -15 16 C-15.76085327 19.74420907 -15.79073333 23.43841509 -15.8125 27.25 C-15.83763672 28.28125 -15.86277344 29.3125 -15.88867188 30.375 C-15.94749726 32.9162568 -15.97662196 35.45816995 -16 38 C-19.3 38 -22.6 38 -26 38 C-26 26.12 -26 14.24 -26 2 C-21.66666667 2 -17.33333333 2 -13 2 C-12.35546875 1.67257813 -11.7109375 1.34515625 -11.046875 1.0078125 C-7.49376996 -0.74161708 -3.90151451 -0.11475043 0 0 Z " fill="#0B0B0B" transform="translate(579,98)"/>
<path d="M0 0 C0 3.63 0 7.26 0 11 C-2.44140625 11.09765625 -4.8828125 11.1953125 -7.32421875 11.29296875 C-11.26342221 12.33383857 -12.6350724 13.66911606 -15 17 C-15.73590407 20.60404302 -15.79031713 24.1424682 -15.8125 27.8125 C-15.83763672 28.79154297 -15.86277344 29.77058594 -15.88867188 30.77929688 C-15.9473663 33.18576829 -15.97658903 35.59292674 -16 38 C-19.3 38 -22.6 38 -26 38 C-26 26.12 -26 14.24 -26 2 C-21.66666667 2 -17.33333333 2 -13 2 C-12.35546875 1.67257813 -11.7109375 1.34515625 -11.046875 1.0078125 C-7.49376996 -0.74161708 -3.90151451 -0.11475043 0 0 Z " fill="#0A0A0A" transform="translate(290,98)"/>
<path d="M0 0 C5.28 0 10.56 0 16 0 C16 5.28 16 10.56 16 16 C16.99 16 17.98 16 19 16 C19 10.72 19 5.44 19 0 C28.9 0 38.8 0 49 0 C49 3.3 49 6.6 49 10 C50.32 10.33 51.64 10.66 53 11 C51.33388095 11.042721 49.66617115 11.04063832 48 11 C47.505 10.505 47.505 10.505 47 10 C47 7.36 47 4.72 47 2 C38.09 2 29.18 2 20 2 C20.28875 4.76375 20.5775 7.5275 20.875 10.375 C20.96120605 11.24431152 21.04741211 12.11362305 21.13623047 13.00927734 C21.49982577 17.46725739 21.49982577 17.46725739 24 21 C24.14517744 23.9093558 24.18630796 26.719946 24.125 29.625 C24.11597656 30.42679688 24.10695313 31.22859375 24.09765625 32.0546875 C24.07406223 34.03658523 24.03819065 36.01832981 24 38 C19.71 38 15.42 38 11 38 C11 32.06 11 26.12 11 20 C12.32 19.67 13.64 19.34 15 19 C15 13.06 15 7.12 15 1 C10.38 1 5.76 1 1 1 C1.01160156 3.21976562 1.02320313 5.43953125 1.03515625 7.7265625 C1.04300252 9.92773293 1.0490474 12.12890167 1.05493164 14.33007812 C1.05989458 15.83496828 1.0666671 17.33985379 1.07543945 18.84472656 C1.13090756 28.62016382 0.86081101 38.25449358 0 48 C-0.33 48 -0.66 48 -1 48 C-2.0558301 22.04792087 -2.0558301 22.04792087 -2.1875 12.75 C-2.20167969 11.77546875 -2.21585938 10.8009375 -2.23046875 9.796875 C-2 7 -2 7 0 0 Z " fill="#E89C72" transform="translate(44,72)"/>
<path d="M0 0 C5.28 0 10.56 0 16 0 C17.35700647 2.71401294 17.1123861 4.84846316 17.09765625 7.8828125 C17.09443359 9.04941406 17.09121094 10.21601562 17.08789062 11.41796875 C17.07951172 12.64128906 17.07113281 13.86460938 17.0625 15.125 C17.05798828 16.35605469 17.05347656 17.58710937 17.04882812 18.85546875 C17.03701341 21.90366639 17.0190775 24.95183916 17 28 C11.39 28 5.78 28 0 28 C0 18.76 0 9.52 0 0 Z " fill="#C1443F" transform="translate(107,73)"/>
<path d="M0 0 C3.2339897 2.68184511 3.88643176 4.23341438 4.5 8.375 C3.88336583 12.84559775 2.45142561 15.24625453 0 19 C-1.93627769 19.10807131 -3.87427756 19.1856225 -5.8125 19.25 C-7.43091797 19.31960937 -7.43091797 19.31960937 -9.08203125 19.390625 C-12 19 -12 19 -13.859375 17.328125 C-15.94866214 13.0636896 -15.65381509 8.62591749 -15 4 C-10.95719845 -1.65992217 -6.34658882 -1.62328382 0 0 Z " fill="#EEEEEE" transform="translate(244,108)"/>
<path d="M0 0 C3.68719067 0.21069661 4.93703597 0.93999898 7.65625 3.53125 C10.69077442 7.33134725 10.58589944 10.68607863 10.3125 15.375 C10.209375 17.89125 10.10625 20.4075 10 23 C4.72 23 -0.56 23 -6 23 C-6.80357143 8 -6.80357143 8 -3 3.0625 C-1.3125 1.22265625 -1.3125 1.22265625 0 0 Z " fill="#FDFDFD" transform="translate(82,48)"/>
<path d="M0 0 C1.65 0 3.3 0 5 0 C5.66 7.59 6.32 15.18 7 23 C16.27557544 23.11586202 16.27557544 23.11586202 19.08203125 19.98828125 C20.2991558 16.02615239 20.56643031 12.31424693 20.6875 8.1875 C20.72166016 7.39923828 20.75582031 6.61097656 20.79101562 5.79882812 C20.87299875 3.86636881 20.93818845 1.93320965 21 0 C22.32 0 23.64 0 25 0 C25.08774066 3.20815845 25.14063706 6.41600462 25.1875 9.625 C25.21263672 10.52863281 25.23777344 11.43226562 25.26367188 12.36328125 C25.32140932 17.63663487 25.1390971 21.5276684 22 26 C17.68937861 29.1374776 12.07580675 28.74083307 7 28 C3.82545395 26.34505254 1.62324361 24.24648722 0 21 C-0.08400529 19.40552536 -0.10727467 17.80759455 -0.09765625 16.2109375 C-0.09443359 15.26992187 -0.09121094 14.32890625 -0.08789062 13.359375 C-0.07951172 12.37453125 -0.07113281 11.3896875 -0.0625 10.375 C-0.05798828 9.38242188 -0.05347656 8.38984375 -0.04882812 7.3671875 C-0.03702145 4.9113984 -0.020554 2.45572896 0 0 Z " fill="#EAE8E4" transform="translate(104,112)"/>
<path d="M0 0 C3.01513063 2.2196951 3.90390762 3.39393703 4.49609375 7.12890625 C4.47675781 8.26199219 4.45742188 9.39507812 4.4375 10.5625 C4.43621094 11.69816406 4.43492187 12.83382812 4.43359375 14.00390625 C4 17 4 17 2.8125 18.875 C-1.01041202 21.24784195 -5.69107789 20.55474147 -10 20 C-12.6875 18.5625 -12.6875 18.5625 -14 16 C-14.68222501 11.64675467 -14.48003519 8.1280827 -12.75 4.0625 C-9.08763784 -0.25385541 -5.57032571 -0.59682061 0 0 Z " fill="#F3F3F3" transform="translate(531,107)"/>
<path d="M0 0 C4.16785253 1.4398036 5.92994677 2.54014985 8.4375 6.1875 C9.27854803 10.60900962 8.93520083 14.10160728 7.0625 18.1875 C5.4375 20.1875 5.4375 20.1875 3.4375 21.1875 C-3.77976041 21.76953713 -3.77976041 21.76953713 -7 19.375 C-9.49389089 15.88355276 -10.03199848 12.53489721 -9.96875 8.265625 C-9.33789763 5.0385725 -7.79428149 3.31062977 -5.34375 1.1953125 C-3.5625 0.1875 -3.5625 0.1875 0 0 Z " fill="#ECECEC" transform="translate(340.5625,106.8125)"/>
<path d="M0 0 C2.875 1.9375 2.875 1.9375 5 5 C5.74965683 9.37064077 5.87347268 13.27082019 3.84765625 17.28125 C1.23743899 19.70935908 -0.55076048 19.50150497 -4.0625 19.4375 C-5.65771484 19.43556641 -5.65771484 19.43556641 -7.28515625 19.43359375 C-8.62900391 19.21896484 -8.62900391 19.21896484 -10 19 C-12.9657349 14.55139766 -12.64087636 10.21856465 -12 5 C-8.68161011 -0.53064981 -6.20298023 -1.70277889 0 0 Z " fill="#EFEFEF" transform="translate(386,108)"/>
<path d="M0 0 C0.33 0 0.66 0 1 0 C1 7.59 1 15.18 1 23 C23.77 23 46.54 23 70 23 C70 23.33 70 23.66 70 24 C30.4 24 -9.2 24 -50 24 C-50 21.36 -50 18.72 -50 16 C-49.34 16 -48.68 16 -48 16 C-48 17.98 -48 19.96 -48 22 C-32.16 22 -16.32 22 0 22 C0 14.74 0 7.48 0 0 Z " fill="#E79559" transform="translate(90,131)"/>
<path d="M0 0 C0 0.66 0 1.32 0 2 C-0.64453125 2.50015625 -1.2890625 3.0003125 -1.953125 3.515625 C-5.05879216 7.28509888 -4.6728604 11.00240795 -4.75 15.75 C-4.77964844 16.63816406 -4.80929688 17.52632812 -4.83984375 18.44140625 C-4.91036918 20.62769449 -4.96314637 22.81292768 -5 25 C-7.64 25 -10.28 25 -13 25 C-15.0818651 20.83626979 -14.32725118 15.54581641 -14 11 C-11.72835608 4.30462845 -7.15509048 0 0 0 Z " fill="#FBFBFC" transform="translate(76,46)"/>
<path d="M0 0 C6.3479871 -0.34486047 11.37574907 -0.35291883 17 3 C23.86144271 9.70620645 23.86144271 9.70620645 24.11352539 13.87939453 C24.10828857 14.62302246 24.10305176 15.36665039 24.09765625 16.1328125 C24.09443359 16.93847656 24.09121094 17.74414062 24.08789062 18.57421875 C24.07951172 19.41597656 24.07113281 20.25773437 24.0625 21.125 C24.05798828 21.97449219 24.05347656 22.82398437 24.04882812 23.69921875 C24.03702874 25.79950909 24.01909306 27.8997633 24 30 C22.35 30 20.7 30 19 30 C18.98582031 28.75863281 18.97164062 27.51726562 18.95703125 26.23828125 C18.910118 24.59631757 18.86187068 22.95439163 18.8125 21.3125 C18.80669922 20.49587891 18.80089844 19.67925781 18.79492188 18.83789062 C18.64251784 14.65524657 18.4007273 12.54805352 15.875 9.09375 C12.72646585 6.80079579 9.85556586 5.48429096 6.1875 4.1875 C5.02605469 3.76855469 3.86460938 3.34960938 2.66796875 2.91796875 C1.78753906 2.61503906 0.90710938 2.31210937 0 2 C0 1.34 0 0.68 0 0 Z " fill="#E0E1E3" transform="translate(85,42)"/>
<path d="M0 0 C7.25868726 1.33075933 7.25868726 1.33075933 10.25 4.03125 C12.63147101 8.07124546 12.45007244 11.22237641 12.25 15.8125 C12.23195313 16.60076172 12.21390625 17.38902344 12.1953125 18.20117188 C12.14844048 20.13464261 12.0767041 22.06748285 12 24 C9.36 24 6.72 24 4 24 C3.81824219 22.40671875 3.81824219 22.40671875 3.6328125 20.78125 C2.80431481 13.7265172 1.99472803 6.83906752 0 0 Z " fill="#FCFCFC" transform="translate(92,47)"/>
<path d="M0 0 C5.28 0 10.56 0 16 0 C17.35700647 2.71401294 17.1123861 4.84846316 17.09765625 7.8828125 C17.09443359 9.04941406 17.09121094 10.21601562 17.08789062 11.41796875 C17.07951172 12.64128906 17.07113281 13.86460938 17.0625 15.125 C17.05798828 16.35605469 17.05347656 17.58710937 17.04882812 18.85546875 C17.0370133 21.90369392 17.02054028 24.95182314 17 28 C15.35 28 13.7 28 12 28 C10.79515278 22.36473035 10.8870357 16.85463885 10.9375 11.125 C10.94201172 10.15046875 10.94652344 9.1759375 10.95117188 8.171875 C10.96289076 5.78122332 10.98082404 3.3906035 11 1 C7.37 1 3.74 1 0 1 C0 0.67 0 0.34 0 0 Z " fill="#C44945" transform="translate(107,73)"/>
<path d="M0 0 C-1.0025144 2.92400035 -1.8793465 4.86992044 -4 7.15625 C-6.60381495 10.85854938 -6.87045228 13.88839685 -7.25 18.3125 C-7.32734375 19.05306641 -7.4046875 19.79363281 -7.484375 20.55664062 C-7.67151741 22.36958268 -7.83787704 24.18464954 -8 26 C-9.32 26 -10.64 26 -12 26 C-12.14584064 22.77131254 -12.23424106 19.54347635 -12.3125 16.3125 C-12.35439453 15.40048828 -12.39628906 14.48847656 -12.43945312 13.54882812 C-12.56351709 6.72530993 -12.56351709 6.72530993 -9.60546875 2.91796875 C-6.04494828 0.29695593 -4.36767612 -0.11493885 0 0 Z " fill="#DFE0E2" transform="translate(83,46)"/>
<path d="M0 0 C1.65 0 3.3 0 5 0 C5.33 8.91 5.66 17.82 6 27 C4.35 27 2.7 27 1 27 C0.3668316 17.98865693 -0.1723784 9.04028922 0 0 Z " fill="#A43935" transform="translate(113,74)"/>
<path d="M0 0 C1.65 0 3.3 0 5 0 C5.19696449 3.10364229 5.38093262 6.20792192 5.5625 9.3125 C5.61857422 10.19357422 5.67464844 11.07464844 5.73242188 11.98242188 C5.78076172 12.82998047 5.82910156 13.67753906 5.87890625 14.55078125 C5.94960327 15.72120972 5.94960327 15.72120972 6.02172852 16.9152832 C6 19 6 19 5 22 C2.9375 22.6875 2.9375 22.6875 1 23 C-0.2263757 20.54724859 -0.11415314 18.9494219 -0.09765625 16.2109375 C-0.09443359 15.26992187 -0.09121094 14.32890625 -0.08789062 13.359375 C-0.07951172 12.37453125 -0.07113281 11.3896875 -0.0625 10.375 C-0.05798828 9.38242188 -0.05347656 8.38984375 -0.04882812 7.3671875 C-0.03702145 4.9113984 -0.020554 2.45572896 0 0 Z " fill="#EAE1CF" transform="translate(104,112)"/>
<path d="M0 0 C0.66 0 1.32 0 2 0 C2.33 1.98 2.66 3.96 3 6 C1.02 6.66 -0.96 7.32 -3 8 C-3 7.67 -3 7.34 -3 7 C-5.31 6.34 -7.62 5.68 -10 5 C-10 4.67 -10 4.34 -10 4 C-8.906875 3.896875 -7.81375 3.79375 -6.6875 3.6875 C-3.01463192 3.00272798 -2.24762314 2.72080696 0 0 Z " fill="#EAE1D0" transform="translate(123,132)"/>
<path d="M0 0 C2.0625 0.4375 2.0625 0.4375 4 1 C3.01 2.485 3.01 2.485 2 4 C1.62435496 7.38934273 1.49413401 10.75786461 1.34375 14.1640625 C1.2303125 15.09992188 1.116875 16.03578125 1 17 C0.34 17.33 -0.32 17.66 -1 18 C-1.02684312 15.18743719 -1.04676188 12.37512759 -1.0625 9.5625 C-1.07087891 8.76005859 -1.07925781 7.95761719 -1.08789062 7.13085938 C-1.0965143 5.08704779 -1.0522815 3.04316098 -1 1 C-0.67 0.67 -0.34 0.34 0 0 Z " fill="#EA9C52" transform="translate(56,91)"/>
</svg>
